NotoSans-SemiBoldItalic.ufo
<glyph name="uni024F" format="2">
  <advance width="519"/>
  <unicode hex="024F"/>
  <anchor x="151" y="-240" name="bottom"/>
  <anchor x="299" y="546" name="top"/>
  <anchor x="557" y="546" name="topright"/>
  <outline>
    <contour>
      <point x="3" y="288" type="line"/>
      <point x="521" y="288" type="line"/>
      <point x="541" y="385" type="line"/>
      <point x="23" y="385" type="line"/>
    </contour>
    <component base="y"/>
  </outline>
</glyph>
<glyph name="uni0280" format="2">
  <advance width="585"/>
  <unicode hex="0280"/>
  <anchor x="235" y="0" name="bottom"/>
  <anchor x="351" y="546" name="top"/>
  <outline>
    <contour>
      <point x="18" y="0" type="line"/>
      <point x="165" y="0" type="line"/>
      <point x="208" y="203" type="line"/>
      <point x="259" y="203" type="line"/>
      <point x="345" y="0" type="line"/>
      <point x="503" y="0" type="line"/>
      <point x="398" y="222" type="line"/>
      <point x="480" y="249"/>
      <point x="540" y="296"/>
      <point x="540" y="399" type="curve" smooth="yes"/>
      <point x="540" y="493"/>
      <point x="466" y="546"/>
      <point x="351" y="546" type="curve" smooth="yes"/>
      <point x="134" y="546" type="line"/>
    </contour>
    <contour>
      <point x="229" y="303" type="line"/>
      <point x="258" y="441" type="line"/>
      <point x="317" y="441" type="line" smooth="yes"/>
      <point x="367" y="441"/>
      <point x="392" y="417"/>
      <point x="392" y="384" type="curve" smooth="yes"/>
      <point x="392" y="325"/>
      <point x="335" y="303"/>
      <point x="287" y="303" type="curve" smooth="yes"/>
    </contour>
  </outline>
</glyph>
<glyph name="doublemacroncomb" format="2">
  <unicode hex="035E"/>
  <anchor x="229" y="546" name="_top"/>
  <anchor x="255" y="709" name="top"/>
  <outline>
    <contour>
      <point x="-14" y="606" type="line"/>
      <point x="498" y="606" type="line"/>
      <point x="520" y="709" type="line"/>
      <point x="8" y="709" type="line"/>
    </contour>
  </outline>
</glyph>
<glyph name="arrowdoublerightbelowcomb" format="2">
  <unicode hex="0362"/>
  <anchor x="221" y="0" name="_bottom"/>
  <anchor x="196" y="-229" name="bottom"/>
  <outline>
    <contour>
      <point x="448" y="-229" type="line"/>
      <point x="586" y="-127" type="line"/>
      <point x="448" y="-25" type="line"/>
      <point x="448" y="-93" type="line"/>
      <point x="-183" y="-93" type="line"/>
      <point x="-198" y="-161" type="line"/>
      <point x="448" y="-161" type="line"/>
    </contour>
  </outline>
</glyph>
<glyph name="heta" format="2">
  <advance width="431"/>
  <unicode hex="0371"/>
  <anchor x="158" y="0" name="bottom"/>
  <anchor x="274" y="546" name="top"/>
  <outline>
    <contour>
      <point x="18" y="0" type="line"/>
      <point x="166" y="0" type="line"/>
      <point x="214" y="225" type="line"/>
      <point x="373" y="225" type="line"/>
      <point x="398" y="336" type="line"/>
      <point x="238" y="336" type="line"/>
      <point x="283" y="546" type="line"/>
      <point x="135" y="546" type="line"/>
    </contour>
  </outline>
</glyph>
<glyph name="Archaicsampi" format="2">
  <advance width="655"/>
  <unicode hex="0372"/>
  <anchor x="270" y="0" name="bottom"/>
  <anchor x="422" y="714" name="top"/>
  <outline>
    <contour>
      <point x="197" y="0" type="line"/>
      <point x="346" y="0" type="line"/>
      <point x="470" y="588" type="line"/>
      <point x="642" y="588" type="line"/>
      <point x="669" y="714" type="line"/>
      <point x="176" y="714" type="line"/>
      <point x="149" y="588" type="line"/>
      <point x="321" y="588" type="line"/>
    </contour>
    <contour>
      <point x="75" y="412" type="line"/>
      <point x="200" y="412" type="line"/>
      <point x="264" y="714" type="line"/>
      <point x="139" y="714" type="line"/>
    </contour>
    <contour>
      <point x="515" y="412" type="line"/>
      <point x="640" y="412" type="line"/>
      <point x="704" y="714" type="line"/>
      <point x="579" y="714" type="line"/>
    </contour>
  </outline>
</glyph>
<glyph name="dieresistonos" format="2">
  <advance width="554"/>
  <unicode hex="0385"/>
  <anchor x="342" y="546" name="_top"/>
  <outline>
    <contour>
      <point x="315" y="678" type="line"/>
      <point x="384" y="678" type="line"/>
      <point x="430" y="730"/>
      <point x="472" y="784"/>
      <point x="500" y="828" type="curve"/>
      <point x="500" y="838" type="line"/>
      <point x="373" y="838" type="line"/>
      <point x="359" y="795"/>
      <point x="334" y="730"/>
      <point x="315" y="691" type="curve"/>
    </contour>
    <contour>
      <point x="226" y="621" type="curve" smooth="yes"/>
      <point x="274" y="621"/>
      <point x="297" y="652"/>
      <point x="297" y="699" type="curve" smooth="yes"/>
      <point x="297" y="739"/>
      <point x="269" y="752"/>
      <point x="238" y="752" type="curve" smooth="yes"/>
      <point x="194" y="752"/>
      <point x="167" y="725"/>
      <point x="167" y="675" type="curve" smooth="yes"/>
      <point x="167" y="635"/>
      <point x="193" y="621"/>
    </contour>
    <contour>
      <point x="495" y="621" type="curve" smooth="yes"/>
      <point x="543" y="621"/>
      <point x="566" y="652"/>
      <point x="566" y="699" type="curve" smooth="yes"/>
      <point x="566" y="739"/>
      <point x="538" y="752"/>
      <point x="507" y="752" type="curve" smooth="yes"/>
      <point x="463" y="752"/>
      <point x="436" y="725"/>
      <point x="436" y="675" type="curve" smooth="yes"/>
      <point x="436" y="635"/>
      <point x="462" y="621"/>
    </contour>
  </outline>
</glyph>
<glyph name="Psi" format="2">
  <advance width="816"/>
  <unicode hex="03A8"/>
  <anchor x="350" y="0" name="bottom"/>
  <anchor x="502" y="714" name="top"/>
  <outline>
    <contour>
      <point x="278" y="0" type="line"/>
      <point x="417" y="0" type="line"/>
      <point x="462" y="212" type="line"/>
      <point x="472" y="212" type="line" smooth="yes"/>
      <point x="669" y="212"/>
      <point x="766" y="308"/>
      <point x="799" y="461" type="curve"/>
      <point x="853" y="714" type="line"/>
      <point x="708" y="714" type="line"/>
      <point x="658" y="478" type="line" smooth="yes"/>
      <point x="634" y="363"/>
      <point x="578" y="335"/>
      <point x="496" y="335" type="curve" smooth="yes"/>
      <point x="488" y="335" type="line"/>
      <point x="568" y="714" type="line"/>
      <point x="429" y="714" type="line"/>
      <point x="349" y="335" type="line"/>
      <point x="341" y="335" type="line" smooth="yes"/>
      <point x="268" y="335"/>
      <point x="232" y="359"/>
      <point x="232" y="423" type="curve" smooth="yes"/>
      <point x="232" y="441"/>
      <point x="235" y="461"/>
      <point x="239" y="480" type="curve" smooth="yes"/>
      <point x="288" y="714" type="line"/>
      <point x="144" y="714" type="line"/>
      <point x="98" y="499" type="line" smooth="yes"/>
      <point x="89" y="456"/>
      <point x="87" y="424"/>
      <point x="87" y="403" type="curve" smooth="yes"/>
      <point x="87" y="300"/>
      <point x="154" y="212"/>
      <point x="317" y="212" type="curve" smooth="yes"/>
      <point x="324" y="212" type="line"/>
    </contour>
  </outline>
</glyph>
<glyph name="beta" format="2">
  <advance width="620"/>
  <unicode hex="03B2"/>
  <anchor x="340" y="0" name="bottom"/>
  <anchor x="415" y="765" name="top"/>
  <anchor x="705" y="765" name="topright"/>
  <outline>
    <contour>
      <point x="-32" y="-240" type="line"/>
      <point x="116" y="-240" type="line"/>
      <point x="172" y="27" type="line"/>
      <point x="200" y="11"/>
      <point x="243" y="-10"/>
      <point x="314" y="-10" type="curve" smooth="yes"/>
      <point x="513" y="-10"/>
      <point x="560" y="145"/>
      <point x="560" y="238" type="curve" smooth="yes"/>
      <point x="560" y="327"/>
      <point x="508" y="384"/>
      <point x="429" y="398" type="curve"/>
      <point x="538" y="416"/>
      <point x="601" y="480"/>
      <point x="601" y="594" type="curve" smooth="yes"/>
      <point x="601" y="700"/>
      <point x="526" y="765"/>
      <point x="392" y="765" type="curve" smooth="yes"/>
      <point x="240" y="765"/>
      <point x="165" y="696"/>
      <point x="136" y="558" type="curve" smooth="yes"/>
    </contour>
    <contour>
      <point x="286" y="109" type="curve" smooth="yes"/>
      <point x="256" y="109"/>
      <point x="215" y="120"/>
      <point x="196" y="139" type="curve"/>
      <point x="281" y="530" type="line" smooth="yes"/>
      <point x="301" y="622"/>
      <point x="337" y="649"/>
      <point x="384" y="649" type="curve" smooth="yes"/>
      <point x="424" y="649"/>
      <point x="450" y="623"/>
      <point x="450" y="579" type="curve" smooth="yes"/>
      <point x="450" y="496"/>
      <point x="405" y="452"/>
      <point x="336" y="452" type="curve" smooth="yes"/>
      <point x="307" y="452" type="line"/>
      <point x="282" y="334" type="line"/>
      <point x="305" y="334" type="line" smooth="yes"/>
      <point x="365" y="334"/>
      <point x="405" y="308"/>
      <point x="405" y="244" type="curve" smooth="yes"/>
      <point x="405" y="170"/>
      <point x="366" y="109"/>
    </contour>
  </outline>
</glyph>
<glyph name="sigma1" format="2">
  <advance width="463"/>
  <unicode hex="03C2"/>
  <anchor x="135" y="-185" name="bottom"/>
  <anchor x="290" y="546" name="top"/>
  <outline>
    <contour>
      <point x="158" y="-185" type="curve"/>
      <point x="312" y="-185" type="line"/>
      <point x="369" y="-132"/>
      <point x="403" y="-83"/>
      <point x="403" y="-18" type="curve" smooth="yes"/>
      <point x="403" y="60"/>
      <point x="349" y="93"/>
      <point x="280" y="125" type="curve" smooth="yes"/>
      <point x="228" y="149"/>
      <point x="193" y="174"/>
      <point x="193" y="238" type="curve" smooth="yes"/>
      <point x="193" y="332"/>
      <point x="248" y="437"/>
      <point x="339" y="437" type="curve" smooth="yes"/>
      <point x="377" y="437"/>
      <point x="414" y="425"/>
      <point x="448" y="409" type="curve"/>
      <point x="493" y="521" type="line"/>
      <point x="451" y="541"/>
      <point x="403" y="556"/>
      <point x="337" y="556" type="curve" smooth="yes"/>
      <point x="138" y="556"/>
      <point x="44" y="372"/>
      <point x="44" y="218" type="curve" smooth="yes"/>
      <point x="44" y="110"/>
      <point x="98" y="54"/>
      <point x="187" y="14" type="curve" smooth="yes"/>
      <point x="245" y="-12"/>
      <point x="252" y="-28"/>
      <point x="252" y="-48" type="curve" smooth="yes"/>
      <point x="252" y="-88"/>
      <point x="209" y="-134"/>
    </contour>
  </outline>
</glyph>
<glyph name="upsilon" format="2">
  <advance width="616"/>
  <unicode hex="03C5"/>
  <anchor x="250" y="0" name="bottom"/>
  <anchor x="358" y="546" name="top"/>
  <outline>
    <contour>
      <point x="260" y="-10" type="curve" smooth="yes"/>
      <point x="542" y="-10"/>
      <point x="572" y="297"/>
      <point x="572" y="546" type="curve"/>
      <point x="425" y="546" type="line"/>
      <point x="425" y="222"/>
      <point x="363" y="110"/>
      <point x="274" y="110" type="curve" smooth="yes"/>
      <point x="229" y="110"/>
      <point x="205" y="135"/>
      <point x="205" y="186" type="curve" smooth="yes"/>
      <point x="205" y="203"/>
      <point x="207" y="222"/>
      <point x="212" y="245" type="curve" smooth="yes"/>
      <point x="275" y="546" type="line"/>
      <point x="129" y="546" type="line"/>
      <point x="66" y="249" type="line" smooth="yes"/>
      <point x="61" y="223"/>
      <point x="58" y="199"/>
      <point x="58" y="176" type="curve" smooth="yes"/>
      <point x="58" y="65"/>
      <point x="120" y="-10"/>
    </contour>
  </outline>
</glyph>
<glyph name="uni03D7" format="2">
  <advance width="625"/>
  <unicode hex="03D7"/>
  <outline>
    <contour>
      <point x="384" y="-240" type="curve" smooth="yes"/>
      <point x="469" y="-240"/>
      <point x="514" y="-195"/>
      <point x="540" y="-75" type="curve" smooth="yes"/>
      <point x="579" y="108" type="line"/>
      <point x="568" y="103"/>
      <point x="550" y="99"/>
      <point x="534" y="99" type="curve" smooth="yes"/>
      <point x="497" y="99"/>
      <point x="475" y="115"/>
      <point x="475" y="158" type="curve" smooth="yes"/>
      <point x="475" y="280"/>
      <point x="581" y="460"/>
      <point x="646" y="546" type="curve"/>
      <point x="515" y="546" type="line"/>
      <point x="229" y="259" type="line"/>
      <point x="242" y="292"/>
      <point x="260" y="337"/>
      <point x="260" y="399" type="curve" smooth="yes"/>
      <point x="260" y="508"/>
      <point x="193" y="546"/>
      <point x="111" y="546" type="curve" smooth="yes"/>
      <point x="77" y="546"/>
      <point x="44" y="540"/>
      <point x="24" y="532" type="curve"/>
      <point x="45" y="430" type="line"/>
      <point x="55" y="434"/>
      <point x="68" y="438"/>
      <point x="85" y="438" type="curve" smooth="yes"/>
      <point x="113" y="438"/>
      <point x="131" y="417"/>
      <point x="131" y="373" type="curve" smooth="yes"/>
      <point x="131" y="269"/>
      <point x="49" y="96"/>
      <point x="-20" y="0" type="curve"/>
      <point x="110" y="0" type="line"/>
      <point x="384" y="282" type="line"/>
      <point x="361" y="237"/>
      <point x="345" y="183"/>
      <point x="345" y="128" type="curve" smooth="yes"/>
      <point x="345" y="54"/>
      <point x="379" y="18"/>
      <point x="432" y="0" type="curve"/>
      <point x="416" y="-74" type="line" smooth="yes"/>
      <point x="408" y="-113"/>
      <point x="390" y="-132"/>
      <point x="358" y="-132" type="curve" smooth="yes"/>
      <point x="342" y="-132"/>
      <point x="322" y="-128"/>
      <point x="310" y="-123" type="curve"/>
      <point x="310" y="-227" type="line"/>
      <point x="329" y="-235"/>
      <point x="354" y="-240"/>
    </contour>
  </outline>
</glyph>
<glyph name="uni03DB" format="2">
  <advance width="486"/>
  <unicode hex="03DB"/>
  <anchor x="141" y="-206" name="bottom"/>
  <anchor x="301" y="546" name="top"/>
  <outline>
    <contour>
      <point x="167" y="-206" type="curve" smooth="yes"/>
      <point x="308" y="-206"/>
      <point x="403" y="-148"/>
      <point x="403" y="-20" type="curve" smooth="yes"/>
      <point x="403" y="43"/>
      <point x="360" y="85"/>
      <point x="280" y="125" type="curve" smooth="yes"/>
      <point x="216" y="157"/>
      <point x="193" y="186"/>
      <point x="193" y="239" type="curve" smooth="yes"/>
      <point x="193" y="334"/>
      <point x="249" y="437"/>
      <point x="342" y="437" type="curve" smooth="yes"/>
      <point x="389" y="437"/>
      <point x="423" y="420"/>
      <point x="448" y="408" type="curve"/>
      <point x="496" y="529" type="line"/>
      <point x="465" y="541"/>
      <point x="414" y="556"/>
      <point x="340" y="556" type="curve" smooth="yes"/>
      <point x="137" y="556"/>
      <point x="44" y="372"/>
      <point x="44" y="219" type="curve" smooth="yes"/>
      <point x="44" y="117"/>
      <point x="97" y="57"/>
      <point x="185" y="15" type="curve" smooth="yes"/>
      <point x="236" y="-9"/>
      <point x="254" y="-21"/>
      <point x="254" y="-45" type="curve" smooth="yes"/>
      <point x="254" y="-80"/>
      <point x="219" y="-97"/>
      <point x="159" y="-97" type="curve" smooth="yes"/>
      <point x="136" y="-97"/>
      <point x="92" y="-92"/>
      <point x="66" y="-81" type="curve"/>
      <point x="66" y="-193" type="line"/>
      <point x="90" y="-200"/>
      <point x="132" y="-206"/>
    </contour>
  </outline>
</glyph>
<glyph name="uni1AB9" format="2">
  <unicode hex="1AB9"/>
  <anchor x="-58" y="0" name="_bottom"/>
  <anchor x="-78" y="-240" name="bottom"/>
  <outline>
    <contour>
      <point x="-210" y="-240" type="line"/>
      <point x="-126" y="-240" type="line"/>
      <point x="51" y="40" type="line"/>
      <point x="-33" y="40" type="line"/>
    </contour>
  </outline>
</glyph>
<glyph name="uni1D0D" format="2">
  <advance width="702"/>
  <unicode hex="1D0D"/>
  <anchor x="293" y="0" name="bottom"/>
  <anchor x="409" y="546" name="top"/>
  <outline>
    <contour>
      <point x="28" y="0" type="line"/>
      <point x="129" y="0" type="line"/>
      <point x="183" y="259" type="line" smooth="yes"/>
      <point x="196" y="321"/>
      <point x="208" y="393"/>
      <point x="212" y="425" type="curve"/>
      <point x="215" y="425" type="line"/>
      <point x="235" y="0" type="line"/>
      <point x="338" y="0" type="line"/>
      <point x="549" y="425" type="line"/>
      <point x="552" y="425" type="line"/>
      <point x="540" y="381"/>
      <point x="522" y="314"/>
      <point x="512" y="264" type="curve" smooth="yes"/>
      <point x="457" y="0" type="line"/>
      <point x="559" y="0" type="line"/>
      <point x="675" y="546" type="line"/>
      <point x="519" y="546" type="line"/>
      <point x="316" y="135" type="line"/>
      <point x="313" y="135" type="line"/>
      <point x="291" y="546" type="line"/>
      <point x="144" y="546" type="line"/>
    </contour>
  </outline>
</glyph>
<glyph name="uni1FBD" format="2">
  <advance width="270"/>
  <unicode hex="1FBD"/>
  <anchor x="203" y="546" name="_top"/>
  <outline>
    <contour>
      <point x="146" y="595" type="line"/>
      <point x="229" y="595"/>
      <point x="298" y="636"/>
      <point x="298" y="718" type="curve" smooth="yes"/>
      <point x="298" y="752"/>
      <point x="275" y="782"/>
      <point x="232" y="782" type="curve"/>
      <point x="195" y="782"/>
      <point x="171" y="757"/>
      <point x="171" y="726" type="curve" smooth="yes"/>
      <point x="171" y="697"/>
      <point x="190" y="682"/>
      <point x="223" y="676" type="curve"/>
      <point x="218" y="654"/>
      <point x="194" y="641"/>
      <point x="155" y="637" type="curve"/>
    </contour>
  </outline>
</glyph>
<glyph name="uni1FC1" format="2">
  <advance width="554"/>
  <unicode hex="1FC1"/>
  <anchor x="352" y="546" name="_top"/>
  <outline>
    <contour>
      <point x="206" y="745" type="curve"/>
      <point x="271" y="745" type="line"/>
      <point x="278" y="769"/>
      <point x="295" y="792"/>
      <point x="320" y="792" type="curve" smooth="yes"/>
      <point x="355" y="792"/>
      <point x="399" y="745"/>
      <point x="457" y="745" type="curve" smooth="yes"/>
      <point x="512" y="745"/>
      <point x="557" y="783"/>
      <point x="572" y="864" type="curve"/>
      <point x="509" y="864" type="line"/>
      <point x="500" y="839"/>
      <point x="486" y="817"/>
      <point x="461" y="817" type="curve" smooth="yes"/>
      <point x="426" y="817"/>
      <point x="382" y="864"/>
      <point x="321" y="864" type="curve" smooth="yes"/>
      <point x="266" y="864"/>
      <point x="218" y="821"/>
    </contour>
    <contour>
      <point x="267" y="599" type="curve" smooth="yes"/>
      <point x="313" y="599"/>
      <point x="335" y="627"/>
      <point x="335" y="671" type="curve" smooth="yes"/>
      <point x="335" y="708"/>
      <point x="309" y="720"/>
      <point x="279" y="720" type="curve" smooth="yes"/>
      <point x="235" y="720"/>
      <point x="210" y="695"/>
      <point x="210" y="648" type="curve" smooth="yes"/>
      <point x="210" y="612"/>
      <point x="234" y="599"/>
    </contour>
    <contour>
      <point x="460" y="599" type="curve" smooth="yes"/>
      <point x="506" y="599"/>
      <point x="528" y="627"/>
      <point x="528" y="671" type="curve" smooth="yes"/>
      <point x="528" y="708"/>
      <point x="502" y="720"/>
      <point x="472" y="720" type="curve" smooth="yes"/>
      <point x="428" y="720"/>
      <point x="403" y="695"/>
      <point x="403" y="648" type="curve" smooth="yes"/>
      <point x="403" y="612"/>
      <point x="427" y="599"/>
    </contour>
  </outline>
</glyph>
<glyph name="uni2C66" format="2">
  <advance width="410"/>
  <unicode hex="2C66"/>
  <anchor x="136" y="-208" name="bottom"/>
  <anchor x="309" y="760" name="top"/>
  <anchor x="203" y="273" name="center"/>
  <anchor x="485" y="662" name="topright"/>
  <outline>
    <contour>
      <point x="-36" y="-208" type="line"/>
      <point x="50" y="-208" type="line"/>
      <point x="545" y="760" type="line"/>
      <point x="459" y="760" type="line"/>
    </contour>
    <component base="t"/>
  </outline>
</glyph>
<glyph name="uniA643" format="2">
  <advance width="455"/>
  <unicode hex="A643"/>
  <outline>
    <contour>
      <point x="36" y="230" type="line"/>
      <point x="405" y="230" type="line"/>
      <point x="426" y="327" type="line"/>
      <point x="57" y="327" type="line"/>
    </contour>
    <component base="uniA641"/>
  </outline>
</glyph>
<glyph name="uniA665" format="2">
  <advance width="780"/>
  <unicode hex="A665"/>
  <anchor x="250" y="0" name="bottom"/>
  <anchor x="366" y="546" name="top"/>
  <outline>
    <contour>
      <point x="335" y="0" type="line"/>
      <point x="482" y="0" type="line"/>
      <point x="572" y="425" type="line"/>
      <point x="786" y="425" type="line"/>
      <point x="812" y="546" type="line"/>
      <point x="451" y="546" type="line"/>
    </contour>
    <component base="afii10077"/>
  </outline>
</glyph>
<glyph name="uniA667" format="2">
  <advance width="937"/>
  <unicode hex="A667"/>
  <anchor x="328" y="0" name="bottom"/>
  <anchor x="444" y="546" name="top"/>
  <outline>
    <contour>
      <point x="729" y="425" type="line"/>
      <point x="943" y="425" type="line"/>
      <point x="969" y="546" type="line"/>
      <point x="608" y="546" type="line"/>
    </contour>
    <component base="afii10078"/>
  </outline>
</glyph>
<glyph name="uniA680" format="2">
  <advance width="720"/>
  <unicode hex="A680"/>
  <anchor x="250" y="-209" name="bottom"/>
  <anchor x="454" y="714" name="top"/>
  <outline>
    <contour>
      <point x="282" y="586" type="line"/>
      <point x="409" y="586" type="line"/>
      <point x="480" y="920" type="line"/>
      <point x="353" y="920" type="line"/>
    </contour>
    <component base="afii10021"/>
  </outline>
</glyph>
<glyph name="uniA731" format="2">
  <advance width="421"/>
  <unicode hex="A731"/>
  <outline>
    <contour>
      <point x="143" y="-10" type="curve" smooth="yes"/>
      <point x="256" y="-10"/>
      <point x="350" y="45"/>
      <point x="350" y="161" type="curve" smooth="yes"/>
      <point x="350" y="226"/>
      <point x="320" y="272"/>
      <point x="259" y="312" type="curve" smooth="yes"/>
      <point x="216" y="341"/>
      <point x="191" y="358"/>
      <point x="191" y="398" type="curve" smooth="yes"/>
      <point x="191" y="436"/>
      <point x="221" y="460"/>
      <point x="262" y="460" type="curve" smooth="yes"/>
      <point x="297" y="460"/>
      <point x="331" y="450"/>
      <point x="371" y="432" type="curve"/>
      <point x="412" y="520" type="line"/>
      <point x="366" y="545"/>
      <point x="319" y="557"/>
      <point x="262" y="557" type="curve" smooth="yes"/>
      <point x="147" y="557"/>
      <point x="73" y="487"/>
      <point x="73" y="389" type="curve" smooth="yes"/>
      <point x="73" y="314"/>
      <point x="121" y="270"/>
      <point x="167" y="236" type="curve" smooth="yes"/>
      <point x="206" y="208"/>
      <point x="233" y="189"/>
      <point x="233" y="147" type="curve" smooth="yes"/>
      <point x="233" y="106"/>
      <point x="195" y="87"/>
      <point x="144" y="87" type="curve" smooth="yes"/>
      <point x="97" y="87"/>
      <point x="54" y="102"/>
      <point x="8" y="128" type="curve"/>
      <point x="8" y="24" type="line"/>
      <point x="40" y="3"/>
      <point x="87" y="-10"/>
    </contour>
  </outline>
</glyph>
<glyph name="uniA745" format="2">
  <advance width="568"/>
  <unicode hex="A745"/>
  <anchor x="247" y="0" name="bottom"/>
  <anchor x="251" y="760" name="top"/>
  <anchor x="651" y="760" name="topright"/>
  <outline>
    <contour>
      <point x="259" y="26" type="line"/>
      <point x="518" y="216" type="line"/>
      <point x="470" y="283" type="line"/>
      <point x="213" y="92" type="line"/>
    </contour>
    <component base="uniA741"/>
  </outline>
</glyph>
<glyph name="uniA74B" format="2">
  <advance width="646"/>
  <unicode hex="A74B"/>
  <anchor x="281" y="0" name="bottom"/>
  <anchor x="381" y="273" name="center"/>
  <anchor x="373" y="546" name="top"/>
  <anchor x="653" y="546" name="topright"/>
  <outline>
    <contour>
      <point x="1" y="224" type="line"/>
      <point x="624" y="224" type="line"/>
      <point x="647" y="330" type="line"/>
      <point x="24" y="330" type="line"/>
    </contour>
    <component base="o" xOffset="30"/>
  </outline>
</glyph>
<glyph name="uniA756" format="2">
  <advance width="730"/>
  <unicode hex="A756"/>
  <anchor x="265" y="-170" name="bottom"/>
  <anchor x="453" y="714" name="top"/>
  <anchor x="798" y="714" name="topright"/>
  <outline>
    <contour>
      <point x="304" y="-177" type="line"/>
      <point x="626" y="-48" type="line"/>
      <point x="592" y="33" type="line"/>
      <point x="271" y="-96" type="line"/>
    </contour>
    <component base="Q" xOffset="-6"/>
  </outline>
</glyph>
<glyph name="uniA757" format="2">
  <advance width="594"/>
  <unicode hex="A757"/>
  <anchor x="188" y="-240" name="bottom"/>
  <anchor x="355" y="546" name="top"/>
  <anchor x="632" y="546" name="topright"/>
  <outline>
    <contour>
      <point x="156" y="-162" type="line"/>
      <point x="494" y="-162" type="line"/>
      <point x="515" y="-64" type="line"/>
      <point x="177" y="-64" type="line"/>
    </contour>
    <component base="q"/>
  </outline>
</glyph>
<glyph name="uniA758" format="2">
  <advance width="840"/>
  <unicode hex="A758"/>
  <anchor x="271" y="-170" name="bottom"/>
  <anchor x="459" y="714" name="top"/>
  <anchor x="804" y="714" name="topright"/>
  <outline>
    <contour>
      <point x="271" y="-210" type="line"/>
      <point x="715" y="70" type="line" smooth="yes"/>
      <point x="817" y="134"/>
      <point x="857" y="191"/>
      <point x="857" y="265" type="curve" smooth="yes"/>
      <point x="857" y="327"/>
      <point x="825" y="369"/>
      <point x="760" y="381" type="curve"/>
      <point x="746" y="322" type="line"/>
      <point x="781" y="314"/>
      <point x="795" y="293"/>
      <point x="795" y="263" type="curve" smooth="yes"/>
      <point x="795" y="224"/>
      <point x="780" y="182"/>
      <point x="696" y="129" type="curve" smooth="yes"/>
      <point x="242" y="-158" type="line"/>
    </contour>
    <component base="Q"/>
  </outline>
</glyph>
<glyph name="uniA776" format="2">
  <advance width="810"/>
  <unicode hex="A776"/>
  <anchor x="235" y="0" name="bottom"/>
  <anchor x="351" y="546" name="top"/>
  <outline>
    <contour>
      <point x="432" y="-157" type="line"/>
      <point x="523" y="-157" type="line"/>
      <point x="743" y="270" type="line"/>
      <point x="653" y="270" type="line"/>
    </contour>
    <contour>
      <point x="394" y="0" type="line"/>
      <point x="742" y="0" type="line"/>
      <point x="766" y="115" type="line"/>
      <point x="418" y="115" type="line"/>
    </contour>
    <component base="uni0280"/>
  </outline>
</glyph>
<glyph name="uniA790" format="2">
  <advance width="755"/>
  <unicode hex="A790"/>
  <anchor x="311" y="0" name="bottom"/>
  <anchor x="477" y="714" name="top"/>
  <anchor x="829" y="714" name="topright"/>
  <outline>
    <contour>
      <point x="518" y="-208" type="line"/>
      <point x="666" y="-208" type="line"/>
      <point x="736" y="120" type="line"/>
      <point x="634" y="120" type="line"/>
      <point x="563" y="0" type="line"/>
    </contour>
    <component base="N"/>
  </outline>
</glyph>
<glyph name="uniA799" format="2">
  <advance width="373"/>
  <unicode hex="A799"/>
  <anchor x="-22" y="-240" name="bottom"/>
  <anchor x="364" y="765" name="top"/>
  <anchor x="498" y="765" name="topright"/>
  <outline>
    <contour>
      <point x="13" y="242" type="line"/>
      <point x="346" y="243" type="line"/>
      <point x="367" y="341" type="line"/>
      <point x="34" y="340" type="line"/>
    </contour>
    <component base="f"/>
  </outline>
</glyph>
<glyph name="uniFE21" format="2">
  <unicode hex="FE21"/>
  <anchor x="50" y="546" name="_top"/>
  <outline>
    <contour>
      <point x="321" y="587" type="curve"/>
      <point x="413" y="587" type="line"/>
      <point x="408" y="717"/>
      <point x="300" y="785"/>
      <point x="101" y="785" type="curve"/>
      <point x="80" y="686" type="line"/>
      <point x="223" y="685"/>
      <point x="293" y="644"/>
    </contour>
  </outline>
</glyph>
<glyph name="hbar.sc" format="2">
  <advance width="612"/>
  <anchor x="244" y="0" name="bottom"/>
  <anchor x="371" y="582" name="top"/>
  <anchor x="319" y="297" name="center"/>
  <anchor x="654" y="582" name="topright"/>
  <outline>
    <contour>
      <point x="36" y="427" type="line"/>
      <point x="641" y="427" type="line"/>
      <point x="659" y="517" type="line"/>
      <point x="53" y="517" type="line"/>
    </contour>
    <component base="h.sc"/>
  </outline>
</glyph>
<glyph name="tbar.sc" format="2">
  <advance width="462"/>
  <anchor x="179" y="0" name="bottom"/>
  <anchor x="297" y="582" name="top"/>
  <anchor x="293" y="291" name="center"/>
  <anchor x="504" y="582" name="topright"/>
  <outline>
    <contour>
      <point x="48" y="195" type="line"/>
      <point x="397" y="195" type="line"/>
      <point x="422" y="312" type="line"/>
      <point x="72" y="312" type="line"/>
    </contour>
    <component base="t.sc"/>
  </outline>
</glyph>
<glyph name="uni1FDD0306" format="2">
  <advance width="400"/>
  <anchor x="266" y="546" name="_top"/>
  <anchor x="294" y="906" name="top"/>
  <outline>
    <contour>
      <point x="273" y="580" type="curve" smooth="yes"/>
      <point x="380" y="580"/>
      <point x="442" y="632"/>
      <point x="463" y="711" type="curve"/>
      <point x="390" y="711" type="line"/>
      <point x="372" y="682"/>
      <point x="345" y="662"/>
      <point x="280" y="662" type="curve" smooth="yes"/>
      <point x="218" y="662"/>
      <point x="196" y="679"/>
      <point x="192" y="711" type="curve"/>
      <point x="120" y="711" type="line"/>
      <point x="120" y="626"/>
      <point x="166" y="580"/>
    </contour>
    <contour>
      <point x="262" y="726" type="curve"/>
      <point x="271" y="768" type="line"/>
      <point x="237" y="769"/>
      <point x="215" y="783"/>
      <point x="215" y="802" type="curve" smooth="yes"/>
      <point x="215" y="804"/>
      <point x="215" y="806"/>
      <point x="216" y="808" type="curve"/>
      <point x="254" y="811"/>
      <point x="284" y="825"/>
      <point x="284" y="864" type="curve" smooth="yes"/>
      <point x="284" y="888"/>
      <point x="266" y="906"/>
      <point x="237" y="906" type="curve" smooth="yes"/>
      <point x="194" y="906"/>
      <point x="159" y="876"/>
      <point x="159" y="817" type="curve" smooth="yes"/>
      <point x="159" y="766"/>
      <point x="193" y="727"/>
    </contour>
    <contour>
      <point x="361" y="736" type="curve"/>
      <point x="427" y="736" type="line"/>
      <point x="430" y="749" type="line"/>
      <point x="425" y="792"/>
      <point x="420" y="848"/>
      <point x="419" y="896" type="curve"/>
      <point x="304" y="896" type="line"/>
      <point x="302" y="886" type="line"/>
      <point x="311" y="842"/>
      <point x="336" y="786"/>
    </contour>
  </outline>
</glyph>
<glyph name="uni1FDE02C9" format="2">
  <advance width="400"/>
  <anchor x="266" y="546" name="_top"/>
  <anchor x="303" y="890" name="top"/>
  <outline>
    <contour>
      <point x="112" y="597" type="line"/>
      <point x="430" y="597" type="line"/>
      <point x="449" y="690" type="line"/>
      <point x="131" y="690" type="line"/>
    </contour>
    <contour>
      <point x="278" y="710" type="curve"/>
      <point x="287" y="752" type="line"/>
      <point x="253" y="753"/>
      <point x="231" y="767"/>
      <point x="231" y="786" type="curve" smooth="yes"/>
      <point x="231" y="788"/>
      <point x="231" y="790"/>
      <point x="232" y="792" type="curve"/>
      <point x="270" y="795"/>
      <point x="300" y="809"/>
      <point x="300" y="848" type="curve" smooth="yes"/>
      <point x="300" y="872"/>
      <point x="282" y="890"/>
      <point x="253" y="890" type="curve" smooth="yes"/>
      <point x="210" y="890"/>
      <point x="175" y="860"/>
      <point x="175" y="801" type="curve" smooth="yes"/>
      <point x="175" y="750"/>
      <point x="209" y="711"/>
    </contour>
    <contour>
      <point x="309" y="720" type="line"/>
      <point x="376" y="720" type="line"/>
      <point x="414" y="759"/>
      <point x="462" y="823"/>
      <point x="490" y="870" type="curve"/>
      <point x="490" y="880" type="line"/>
      <point x="362" y="880" type="line"/>
      <point x="350" y="837"/>
      <point x="330" y="779"/>
      <point x="309" y="733" type="curve"/>
    </contour>
  </outline>
</glyph>
<glyph name="zero.slash" format="2">
  <advance width="551"/>
  <outline>
    <contour>
      <point x="163" y="177" type="line"/>
      <point x="457" y="471" type="line"/>
      <point x="411" y="551" type="line"/>
      <point x="117" y="257" type="line"/>
    </contour>
    <component base="zero"/>
  </outline>
</glyph>
